<svg width="768" height="3303" viewBox="0 0 768 3303" fill="none" xmlns="http://www.w3.org/2000/svg" xmlns:xlink="http://www.w3.org/1999/xlink">
<rect width="768" height="3303" fill="#0E0E0E"/>
<rect width="768" height="3303" fill="#fff2fd"/>
<circle cx="85.9999" cy="889" r="62.5" transform="rotate(22.7945 85.9999 889)" stroke="#212121"/>
<circle cx="681" cy="1945" r="62.5" stroke="#212121"/>
<g filter="url(#filter0_b)">
<circle cx="86" cy="889" r="40" fill="#000000" fill-opacity="0.03"/>
</g>
<g filter="url(#filter1_b)">
<circle cx="681" cy="1945" r="40" fill="#000000" fill-opacity="0.03"/>
</g>
<mask id="path-7-inside-1" fill="white">
<path d="M263 2179.5C263 2148.31 256.857 2117.43 244.921 2088.61C232.986 2059.8 215.492 2033.62 193.438 2011.56C171.384 1989.51 145.202 1972.01 116.387 1960.08C87.5725 1948.14 56.6889 1942 25.5 1942L25.5 2179.5H263Z"/>
</mask>
<path d="M263 2179.5C263 2148.31 256.857 2117.43 244.921 2088.61C232.986 2059.8 215.492 2033.62 193.438 2011.56C171.384 1989.51 145.202 1972.01 116.387 1960.08C87.5725 1948.14 56.6889 1942 25.5 1942L25.5 2179.5H263Z" stroke="#212121" stroke-width="2" mask="url(#path-7-inside-1)"/>
<mask id="path-8-inside-2" fill="white">
<path d="M742.5 1141C711.311 1141 680.427 1147.14 651.613 1159.08C622.798 1171.01 596.616 1188.51 574.562 1210.56C552.508 1232.62 535.014 1258.8 523.079 1287.61C511.143 1316.43 505 1347.31 505 1378.5L742.5 1378.5L742.5 1141Z"/>
</mask>
<path d="M742.5 1141C711.311 1141 680.427 1147.14 651.613 1159.08C622.798 1171.01 596.616 1188.51 574.562 1210.56C552.508 1232.62 535.014 1258.8 523.079 1287.61C511.143 1316.43 505 1347.31 505 1378.5L742.5 1378.5L742.5 1141Z" stroke="#212121" stroke-width="2" mask="url(#path-8-inside-2)"/>
<mask id="path-9-inside-3" fill="white">
<path d="M742.5 2868C711.311 2868 680.427 2874.14 651.613 2886.08C622.798 2898.01 596.616 2915.51 574.562 2937.56C552.508 2959.62 535.014 2985.8 523.079 3014.61C511.143 3043.43 505 3074.31 505 3105.5L742.5 3105.5L742.5 2868Z"/>
</mask>
<path d="M742.5 2868C711.311 2868 680.427 2874.14 651.613 2886.08C622.798 2898.01 596.616 2915.51 574.562 2937.56C552.508 2959.62 535.014 2985.8 523.079 3014.61C511.143 3043.43 505 3074.31 505 3105.5L742.5 3105.5L742.5 2868Z" stroke="#212121" stroke-width="2" mask="url(#path-9-inside-3)"/>
<circle cx="86" cy="3303" r="62.5" stroke="#212121"/>
<g filter="url(#filter2_b)">
<path d="M126 3303C126 3297.75 124.965 3292.55 122.955 3287.69C120.945 3282.84 117.999 3278.43 114.284 3274.72C110.57 3271 106.16 3268.06 101.307 3266.04C96.4543 3264.03 91.2529 3263 86 3263C80.7471 3263 75.5457 3264.03 70.6927 3266.04C65.8396 3268.06 61.4301 3271 57.7157 3274.72C54.0014 3278.43 51.055 3282.84 49.0448 3287.69C47.0346 3292.55 46 3297.75 46 3303L86 3303H126Z" fill="#000000" fill-opacity="0.03"/>
</g>
<line x1="86.5" y1="-2.18557e-08" x2="86.5" y2="826" stroke="#212121"/>
<line x1="86.5" y1="952" x2="86.5001" y2="3240" stroke="#212121"/>
<line x1="681.5" y1="-2.18557e-08" x2="681.5" y2="1882" stroke="#212121"/>
<line x1="681.5" y1="2008" x2="681.5" y2="3303" stroke="#212121"/>
<defs>
<pattern id="pattern0" patternContentUnits="objectBoundingBox" width="2.5" height="0.0454133">
<use xlink:href="#image0" transform="scale(0.00130208 0.000302755)"/>
</pattern>
<filter id="filter0_b" x="26" y="829" width="120" height="120" filterUnits="userSpaceOnUse" color-interpolation-filters="sRGB">
<feFlood flood-opacity="0" result="BackgroundImageFix"/>
<feGaussianBlur in="BackgroundImage" stdDeviation="10"/>
<feComposite in2="SourceAlpha" operator="in" result="effect1_backgroundBlur"/>
<feBlend mode="normal" in="SourceGraphic" in2="effect1_backgroundBlur" result="shape"/>
</filter>
<filter id="filter1_b" x="621" y="1885" width="120" height="120" filterUnits="userSpaceOnUse" color-interpolation-filters="sRGB">
<feFlood flood-opacity="0" result="BackgroundImageFix"/>
<feGaussianBlur in="BackgroundImage" stdDeviation="10"/>
<feComposite in2="SourceAlpha" operator="in" result="effect1_backgroundBlur"/>
<feBlend mode="normal" in="SourceGraphic" in2="effect1_backgroundBlur" result="shape"/>
</filter>
<filter id="filter2_b" x="26" y="3243" width="120" height="80" filterUnits="userSpaceOnUse" color-interpolation-filters="sRGB">
<feFlood flood-opacity="0" result="BackgroundImageFix"/>
<feGaussianBlur in="BackgroundImage" stdDeviation="10"/>
<feComposite in2="SourceAlpha" operator="in" result="effect1_backgroundBlur"/>
<feBlend mode="normal" in="SourceGraphic" in2="effect1_backgroundBlur" result="shape"/>
</filter>
<linearGradient id="paint0_linear" x1="50.7059" y1="837.235" x2="109.529" y2="946.059" gradientUnits="userSpaceOnUse">
<stop stop-color="#C4C4C4"/>
<stop offset="1" stop-color="#C4C4C4" stop-opacity="0"/>
</linearGradient>
<linearGradient id="paint1_linear" x1="645.706" y1="1893.24" x2="704.529" y2="2002.06" gradientUnits="userSpaceOnUse">
<stop stop-color="#C4C4C4"/>
<stop offset="1" stop-color="#C4C4C4" stop-opacity="0"/>
</linearGradient>
<linearGradient id="paint2_linear" x1="50.7059" y1="3251.24" x2="109.529" y2="3360.06" gradientUnits="userSpaceOnUse">
<stop stop-color="#C4C4C4"/>
<stop offset="1" stop-color="#C4C4C4" stop-opacity="0"/>
</linearGradient>
</defs>
</svg>