<svg aria-hidden="true" style="position: absolute; width: 0; height: 0; overflow: hidden;" version="1.1" xmlns="http://www.w3.org/2000/svg" xmlns:xlink="http://www.w3.org/1999/xlink">
<defs>
<symbol id="icon-arrow-down" viewBox="0 0 52 32">
<path fill="#939393" style="fill: var(--color1, #939393)" d="M26 32l-25.981-30h51.962l-25.981 30z"></path>
</symbol>
<symbol id="icon-barcode" viewBox="0 0 44 32">
<path d="M4.91 1.27h-4.91v29.46h4.91v-29.46z"></path>
<path d="M17.26 1.27h-4.91v29.46h4.91v-29.46z"></path>
<path d="M24.699 1.27h-4.91v29.46h4.91v-29.46z"></path>
<path d="M44.19 1.27h-7.291v29.46h7.291v-29.46z"></path>
<path d="M9.82 1.27h-2.381v29.46h2.381v-29.46z"></path>
<path d="M29.46 1.27h-2.381v29.46h2.381v-29.46z"></path>
<path d="M34.37 1.27h-2.381v29.46h2.381v-29.46z"></path>
</symbol>
<symbol id="icon-close-cross" viewBox="0 0 32 32">
<path fill="#4c00fe" style="fill: var(--color2, #4c00fe)" d="M1.646 32c-0.422 0-0.843-0.16-1.163-0.483-0.643-0.643-0.643-1.685 0-2.328l28.707-28.707c0.643-0.643 1.685-0.643 2.328 0s0.643 1.685 0 2.329l-28.707 28.706c-0.323 0.321-0.744 0.483-1.165 0.483z"></path>
<path fill="#4c00fe" style="fill: var(--color2, #4c00fe)" d="M30.355 32c-0.422 0-0.843-0.16-1.163-0.483l-28.709-28.706c-0.643-0.643-0.643-1.686 0-2.329s1.685-0.643 2.329 0l28.707 28.707c0.643 0.643 0.643 1.685 0 2.328-0.323 0.321-0.744 0.483-1.163 0.483z"></path>
</symbol>
<symbol id="icon-drop" viewBox="0 0 22 32">
<path fill="#fff" style="fill: var(--color3, #fff)" d="M11.2 0c-6.176 0-11.2 4.99-11.2 11.123 0 7.709 11.211 20.877 11.211 20.877s11.189-13.547 11.189-20.877c0-6.133-5.024-11.123-11.2-11.123zM14.579 14.38c-0.932 0.925-2.155 1.388-3.379 1.388s-2.448-0.463-3.379-1.388c-1.863-1.85-1.863-4.861 0-6.712 0.902-0.896 2.103-1.39 3.379-1.39s2.477 0.494 3.379 1.39c1.863 1.851 1.863 4.862 0 6.712z"></path>
</symbol>
<symbol id="icon-magnifier" viewBox="0 0 32 32">
<path fill="#939393" style="fill: var(--color1, #939393)" d="M4.024 4.024c2.595-2.595 6.045-4.024 9.715-4.024s7.12 1.429 9.715 4.024c2.595 2.595 4.024 6.045 4.024 9.715 0 3.355-1.195 6.526-3.383 9.029l7.63 7.63c0.366 0.366 0.366 0.961 0 1.327-0.183 0.183-0.423 0.275-0.664 0.275s-0.48-0.092-0.663-0.275l-7.63-7.63c-2.502 2.188-5.673 3.383-9.029 3.383-3.67 0-7.12-1.429-9.715-4.024s-4.024-6.045-4.024-9.715 1.429-7.12 4.024-9.715zM5.351 22.127c4.625 4.625 12.15 4.625 16.775 0s4.625-12.15 0-16.775c-2.313-2.313-5.35-3.469-8.388-3.469s-6.075 1.157-8.388 3.469c-4.625 4.625-4.625 12.15 0 16.775z"></path>
</symbol>
<symbol id="icon-pink-border" viewBox="0 0 34 32">
<path fill="#939393" style="fill: var(--color1, #939393)" d="M4.024 4.024c2.595-2.595 6.045-4.024 9.715-4.024s7.12 1.429 9.715 4.024c2.595 2.595 4.024 6.045 4.024 9.715 0 3.355-1.195 6.526-3.383 9.029l7.63 7.63c0.366 0.366 0.366 0.961 0 1.327-0.183 0.183-0.423 0.275-0.664 0.275s-0.48-0.092-0.663-0.275l-7.63-7.63c-2.502 2.188-5.673 3.383-9.029 3.383-3.67 0-7.12-1.429-9.715-4.024s-4.024-6.045-4.024-9.715 1.429-7.12 4.024-9.715zM5.351 22.127c4.625 4.625 12.15 4.625 16.775 0s4.625-12.15 0-16.775c-2.313-2.313-5.35-3.469-8.388-3.469s-6.075 1.157-8.388 3.469c-4.625 4.625-4.625 12.15 0 16.775z"></path>
</symbol>
<symbol id="icon-small-pink-border" viewBox="0 0 115 110">
<path fill="none" stroke="#dc56c5" style="stroke: var(--color4, #dc56c5)" stroke-linejoin="miter" stroke-linecap="butt" stroke-miterlimit="4" stroke-width="1.0667" d="M0.533 10.667c0-5.596 4.537-10.133 10.133-10.133h20.8v20.8c0 5.596-4.537 10.133-10.133 10.133h-20.8v-20.8z"></path>
</symbol>
<symbol id="logo" viewBox="0 0 60 31">
<path d="M18.5953 23.2695C18.037 21.7177 16.8882 20.9417 15.1489 20.9413H14.6001V30.5133H15.1489C16.4933 30.5133 17.4855 29.9834 18.1257 28.9235C18.6651 28.019 18.9347 26.8679 18.9347 25.4704C18.9335 24.6392 18.8203 23.9055 18.5953 23.2695Z" fill="white"/>
<path d="M9.17651 23.3843C9.73539 24.9361 10.884 25.712 12.6224 25.712H13.1712V16.1401H12.6224C11.2781 16.1401 10.2858 16.67 9.6456 17.7298C9.10785 18.634 8.83882 19.7851 8.8385 21.1829C8.8385 22.0132 8.95117 22.747 9.17651 23.3843Z" fill="white"/>
<path d="M0.0429688 0.853577H7.34578V3.38867H2.66449V4.65622H6.55356V7.06168H2.66449V8.34364H7.34578V10.8787H0.0429688V0.853577Z" fill="white"/>
<path d="M11.0183 0.841064H20.4673L15.7428 11.0823L11.0183 0.841064ZM15.7428 9.81473L19.6463 1.37401H11.8537L15.7428 9.81473Z" fill="white"/>
<path d="M24.2411 0.853058H31.5439V3.38815H26.8626V4.6557H30.7517V7.06116H26.8626V8.34312H31.5439V10.8782H24.2411V0.853058Z" fill="white"/>
<path d="M36.0381 10.8638V0.841064H36.5998L43.6002 7.65414V0.841064H44.1331V10.8662L36.0381 10.8638Z" fill="white"/>
<path d="M51.7817 10.8782V3.38815H47.9934V0.853058H56.0884V3.38815H52.3002V10.8782H51.7817Z" fill="white"/>
<path d="M4.34927 18.1378C4.98304 18.1378 5.48718 18.2338 5.86168 18.4259C6.29196 18.6358 6.65337 18.9642 6.90343 19.3724C7.15348 19.7807 7.28179 20.2519 7.27327 20.7305C7.27589 21.192 7.1459 21.6444 6.89877 22.0341C6.64762 22.4337 6.29465 22.7594 5.87609 22.9776C6.39583 23.1609 6.85118 23.4911 7.18685 23.9282C7.53524 24.3605 7.72351 24.8999 7.71979 25.455C7.72348 25.9402 7.59125 26.4167 7.33809 26.8306C7.09048 27.2417 6.74063 27.5816 6.32261 27.8173C6.1007 27.9364 5.8631 28.0237 5.61682 28.0766C5.35754 28.1342 5.01185 28.163 4.57973 28.163H0.143311V18.1378H4.34927Z" fill="white"/>
<path d="M21.2379 27.4356C20.4841 26.7778 20.112 25.7911 20.1216 24.4756H22.4695C22.4599 25.0229 22.6231 25.4406 22.9592 25.7287C23.2953 26.0168 23.7658 26.1608 24.3708 26.1608C24.8701 26.1608 25.2639 26.0792 25.5519 25.916C25.84 25.7527 25.9841 25.5031 25.9841 25.167C25.9841 24.8885 25.8376 24.6868 25.5447 24.562C25.265 24.4412 24.9727 24.3518 24.6733 24.2955C24.3852 24.2427 24.2076 24.2107 24.1403 24.1995C23.4878 24.0788 22.8468 23.9021 22.2246 23.6714C21.7022 23.4771 21.2368 23.1553 20.8706 22.7351C20.5057 22.3126 20.3233 21.7556 20.3233 21.0642C20.3233 20.3728 20.5057 19.7847 20.8706 19.2998C21.2355 18.8148 21.7229 18.4523 22.3326 18.2123C22.9689 17.9673 23.6458 17.8451 24.3276 17.8522C25.2014 17.8522 25.9576 18.0154 26.5962 18.3419C27.2348 18.6684 27.7365 19.1629 28.1014 19.8255C28.2708 20.1057 28.3833 20.4165 28.4327 20.7401C28.4706 21.0243 28.4898 21.3106 28.4903 21.5972H26.1425C26.1425 21.0786 26.0033 20.6969 25.7248 20.4521C25.4463 20.2072 25.0142 20.0848 24.4284 20.0848C23.9579 20.0848 23.593 20.1664 23.3337 20.3296C23.0745 20.4929 22.9448 20.7137 22.9448 20.9922C22.9448 21.2995 23.1177 21.5252 23.4634 21.6692C23.888 21.837 24.3266 21.9672 24.7741 22.0581C25.6384 22.231 26.3129 22.3966 26.7979 22.555C27.2867 22.7162 27.7225 23.0075 28.0582 23.3977C28.4135 23.801 28.5912 24.3675 28.5912 25.0973C28.5912 25.7887 28.3991 26.3841 28.015 26.8834C27.6309 27.3828 27.1244 27.7645 26.4954 28.0286C25.8495 28.296 25.1563 28.4307 24.4572 28.4247C23.0649 28.4231 21.9918 28.0934 21.2379 27.4356Z" fill="white"/>
<path d="M34.4967 28.163V20.6729H30.7085V18.1378H38.8035V20.6729H35.0153V28.163H34.4967Z" fill="white"/>
<path d="M41.526 18.1378H48.8288V20.6729H44.1475V21.9405H48.0366V24.3459H44.1475V25.6279H48.8288V28.163H41.526V18.1378Z" fill="white"/>
<path d="M59.6456 28.163H51.9395V18.1378H55.8429C56.6784 18.1378 57.3601 18.2867 57.8883 18.5843C58.3929 18.8588 58.8117 19.2676 59.0982 19.7655C59.3875 20.2692 59.5367 20.8411 59.5303 21.4219C59.5372 22.1512 59.293 22.8606 58.839 23.4313C58.4038 24.0045 57.7908 24.4173 57.0961 24.6052L59.6456 28.163ZM52.4724 19.0165V24.1875H56.1742L52.4724 19.0165ZM52.4724 27.63H58.6373L56.5343 24.706L56.0878 24.7204H52.4724V27.63ZM52.8469 18.6708L56.7648 24.1443C57.3938 24.0185 57.9593 23.6772 58.3636 23.1792C58.7795 22.6888 59.0045 22.0649 58.9974 21.4219C59.0032 20.9151 58.8686 20.4166 58.6085 19.9815C58.3495 19.5496 57.9686 19.2038 57.5138 18.9877C57.0913 18.7764 56.5391 18.6708 55.8573 18.6708H52.8469Z" fill="white"/>

<symbol id="icon-circle-up" viewBox="0 0 32 32">
<path d="M0 16c0 8.837 7.163 16 16 16s16-7.163 16-16-7.163-16-16-16-16 7.163-16 16zM29 16c0 7.18-5.82 13-13 13s-13-5.82-13-13 5.82-13 13-13 13 5.82 13 13z"></path>
<path d="M22.086 20.914l2.829-2.829-8.914-8.914-8.914 8.914 2.828 2.828 6.086-6.086z"></path>
</symbol>

</defs>
</svg>
